<svg xmlns:xlink="http://www.w3.org/1999/xlink" viewBox="0 0 16 11" fill="none" xmlns="http://www.w3.org/2000/svg" width="16"  height="11" >
            <path d="M15.7822 4.98627L10.8605 0.211125C10.72 0.0748182 10.5328 0 10.3331 0C10.1332 0 9.94611 0.0749257 9.80561 0.211125L9.35876 0.64477C9.21837 0.780862 9.14104 0.96264 9.14104 1.15646C9.14104 1.35017 9.21837 1.53807 9.35876 1.67417L12.23 4.46598H0.736265C0.324976 4.46598 0 4.77837 0 5.17751V5.79057C0 6.1897 0.324976 6.53359 0.736265 6.53359H12.2626L9.35887 9.34099C9.21848 9.4773 9.14115 9.65413 9.14115 9.84795C9.14115 10.0416 9.21848 10.221 9.35887 10.3572L9.80572 10.7894C9.94622 10.9257 10.1334 11 10.3332 11C10.5329 11 10.7202 10.9248 10.8606 10.7884L15.7823 6.01341C15.9231 5.87667 16.0006 5.69414 16 5.50011C16.0004 5.30543 15.9231 5.12279 15.7822 4.98627Z" fill="#FFFFFF"></path>
        </svg>